<svg width="20" height="20" viewBox="0 0 20 20" fill="none" xmlns="http://www.w3.org/2000/svg">
<path fill-rule="evenodd" clip-rule="evenodd" d="M16.704 4.153C16.7825 4.21263 16.8485 4.28716 16.8982 4.37233C16.9479 4.4575 16.9804 4.55163 16.9936 4.64935C17.0069 4.74706 17.0008 4.84643 16.9756 4.94178C16.9505 5.03713 16.9067 5.12657 16.847 5.205L8.84697 15.705C8.78208 15.7901 8.69974 15.8602 8.60549 15.9108C8.51123 15.9615 8.40724 15.9913 8.3005 15.9984C8.19375 16.0055 8.08673 15.9897 7.9866 15.952C7.88647 15.9144 7.79556 15.8557 7.71997 15.78L3.21997 11.28C3.08749 11.1378 3.01537 10.9498 3.01879 10.7555C3.02222 10.5612 3.10093 10.3758 3.23835 10.2384C3.37576 10.101 3.56114 10.0223 3.75545 10.0188C3.94975 10.0154 4.13779 10.0875 4.27997 10.22L8.17397 14.113L15.654 4.296C15.7744 4.13796 15.9525 4.03413 16.1494 4.00732C16.3462 3.98051 16.5457 4.0329 16.704 4.153Z" fill="#5DC2AF"/>
</svg>
